<svg xmlns="http://www.w3.org/2000/svg" xmlns:xlink="http://www.w3.org/1999/xlink" width="500" zoomAndPan="magnify" viewBox="0 0 375 374.999991" height="500" preserveAspectRatio="xMidYMid meet" version="1.0"><defs><filter x="0%" y="0%" width="100%" height="100%" id="df0ebba2cb"><feColorMatrix values="0 0 0 0 1 0 0 0 0 1 0 0 0 0 1 0 0 0 1 0" color-interpolation-filters="sRGB"/></filter><g/><clipPath id="302485c921"><path d="M 102 91 L 276.773438 91 L 276.773438 233.855469 L 102 233.855469 Z M 102 91 " clip-rule="nonzero"/></clipPath><clipPath id="e035a977d9"><path d="M 93.023438 121 L 214 121 L 214 208 L 93.023438 208 Z M 93.023438 121 " clip-rule="nonzero"/></clipPath><clipPath id="74a705f6f5"><path d="M 224 70.355469 L 249 70.355469 L 249 119 L 224 119 Z M 224 70.355469 " clip-rule="nonzero"/></clipPath><clipPath id="03c1b25459"><path d="M 224 199 L 249 199 L 249 233.855469 L 224 233.855469 Z M 224 199 " clip-rule="nonzero"/></clipPath><clipPath id="948cbb2ebe"><path d="M 191 219 L 216 219 L 216 233.855469 L 191 233.855469 Z M 191 219 " clip-rule="nonzero"/></clipPath><clipPath id="e988fc007c"><path d="M 133 90 L 276.773438 90 L 276.773438 233.855469 L 133 233.855469 Z M 133 90 " clip-rule="nonzero"/></clipPath><mask id="366ba965e5"><g filter="url(#df0ebba2cb)"><rect x="-37.5" width="450" fill="#000000" y="-37.499999" height="449.999989" fill-opacity="0.2"/></g></mask><clipPath id="39bbedcdc3"><path d="M 1 0.480469 L 143.773438 0.480469 L 143.773438 143.855469 L 1 143.855469 Z M 1 0.480469 " clip-rule="nonzero"/></clipPath><clipPath id="14c18fb009"><rect x="0" width="144" y="0" height="144"/></clipPath><mask id="a72bf8ba5e"><g filter="url(#df0ebba2cb)"><rect x="-37.5" width="450" fill="#000000" y="-37.499999" height="449.999989" fill-opacity="0.2"/></g></mask><clipPath id="41c054f781"><rect x="0" width="78" y="0" height="78"/></clipPath><mask id="ee4acca6f7"><g filter="url(#df0ebba2cb)"><rect x="-37.5" width="450" fill="#000000" y="-37.499999" height="449.999989" fill-opacity="0.2"/></g></mask><clipPath id="d30cafc2fc"><path d="M 1 0.28125 L 25.238281 0.28125 L 25.238281 26.921875 L 1 26.921875 Z M 1 0.28125 " clip-rule="nonzero"/></clipPath><clipPath id="861d6ffb5f"><rect x="0" width="26" y="0" height="27"/></clipPath><mask id="3220ad6b07"><g filter="url(#df0ebba2cb)"><rect x="-37.5" width="450" fill="#000000" y="-37.499999" height="449.999989" fill-opacity="0.2"/></g></mask><clipPath id="8a7fd0864c"><rect x="0" width="26" y="0" height="33"/></clipPath><mask id="c8d7402f94"><g filter="url(#df0ebba2cb)"><rect x="-37.5" width="450" fill="#000000" y="-37.499999" height="449.999989" fill-opacity="0.2"/></g></mask><clipPath id="a6f88b4c01"><path d="M 0.761719 1 L 25 1 L 25 34 L 0.761719 34 Z M 0.761719 1 " clip-rule="nonzero"/></clipPath><clipPath id="33bdacc074"><rect x="0" width="25" y="0" height="35"/></clipPath><clipPath id="1aee184393"><path d="M 224 70.355469 L 250 70.355469 L 250 116 L 224 116 Z M 224 70.355469 " clip-rule="nonzero"/></clipPath><mask id="d1a14c2b95"><g filter="url(#df0ebba2cb)"><rect x="-37.5" width="450" fill="#000000" y="-37.499999" height="449.999989" fill-opacity="0.2"/></g></mask><clipPath id="5e8a0d563e"><path d="M 0.640625 0.355469 L 25 0.355469 L 25 45.921875 L 0.640625 45.921875 Z M 0.640625 0.355469 " clip-rule="nonzero"/></clipPath><clipPath id="3c91fc35e8"><rect x="0" width="26" y="0" height="46"/></clipPath><clipPath id="16dfd9254f"><rect x="0" width="215" y="0" height="60"/></clipPath><clipPath id="6de94998db"><path d="M 101.367188 282 L 179 282 L 179 284 L 101.367188 284 Z M 101.367188 282 " clip-rule="nonzero"/></clipPath><clipPath id="1d56207b44"><path d="M 196 282 L 273.867188 282 L 273.867188 284 L 196 284 Z M 196 282 " clip-rule="nonzero"/></clipPath><clipPath id="9c38603a15"><path d="M 186 281.410156 L 189 281.410156 L 189 284.410156 L 186 284.410156 Z M 186 281.410156 " clip-rule="nonzero"/></clipPath></defs><rect x="-37.5" width="450" fill="#ffffff" y="-37.499999" height="449.999989" fill-opacity="1"/><rect x="-37.5" width="450" fill="#ffffff" y="-37.499999" height="449.999989" fill-opacity="1"/><g clip-path="url(#302485c921)"><path fill="#0056a2" d="M 276.472656 143.417969 L 260.542969 136.277344 C 256.257812 146.277344 252.742188 156.714844 248.566406 166.820312 C 245.820312 173.632812 242.742188 180.226562 239.117188 186.488281 C 238.457031 187.585938 237.796875 188.796875 237.140625 189.785156 C 236.917969 190.222656 236.589844 190.664062 236.261719 191.101562 L 236.152344 191.320312 C 235.160156 192.75 234.28125 194.179688 233.292969 195.496094 C 233.074219 195.277344 232.855469 195.167969 232.636719 194.949219 C 232.855469 195.167969 233.074219 195.277344 233.183594 195.496094 C 233.183594 195.496094 233.074219 195.605469 233.074219 195.71875 C 230.546875 199.011719 227.910156 202.199219 224.945312 205.164062 C 224.835938 205.277344 224.722656 205.386719 224.613281 205.496094 C 221.867188 208.351562 218.902344 210.988281 215.824219 213.40625 C 208.574219 219.117188 200.554688 223.84375 192.09375 227.25 C 189.125 228.457031 186.050781 229.554688 182.972656 230.433594 C 178.25 231.753906 173.304688 232.742188 168.472656 233.292969 C 162.429688 233.953125 156.167969 234.0625 150.011719 233.292969 C 146.496094 232.851562 143.089844 232.191406 139.574219 231.3125 C 139.574219 231.3125 139.574219 231.3125 139.464844 231.3125 C 137.707031 230.875 135.839844 230.324219 134.082031 229.667969 C 131.445312 228.789062 128.917969 227.796875 126.390625 226.589844 C 123.972656 225.492188 121.667969 224.171875 119.359375 222.855469 C 117.492188 221.644531 115.625 220.546875 113.867188 219.230469 C 111.449219 217.03125 109.140625 214.613281 107.054688 211.976562 C 105.625 210.109375 104.199219 208.132812 102.988281 206.042969 C 104.199219 207.253906 105.515625 208.460938 106.835938 209.449219 C 108.375 210.550781 110.019531 211.648438 111.667969 212.636719 C 116.285156 215.273438 121.226562 217.25 126.390625 218.570312 C 127.601562 218.898438 128.808594 219.117188 130.015625 219.449219 C 136.609375 220.765625 143.421875 221.097656 150.125 220.65625 C 153.199219 220.4375 156.167969 220.109375 159.242188 219.558594 C 165.726562 218.351562 172.207031 216.480469 178.359375 213.84375 C 179.898438 213.1875 181.324219 212.527344 182.863281 211.867188 C 185.941406 210.328125 189.125 208.679688 191.984375 206.8125 C 201.210938 201.101562 209.34375 193.957031 215.714844 185.5 C 216.703125 184.289062 217.472656 183.082031 218.351562 181.761719 C 218.460938 181.652344 218.570312 181.542969 218.679688 181.324219 C 220 179.566406 221.207031 177.808594 222.308594 176.050781 C 223.078125 174.953125 223.625 173.851562 224.285156 172.753906 C 224.503906 172.425781 224.613281 172.203125 224.835938 171.875 C 232.523438 158.363281 237.46875 143.308594 243.292969 128.695312 L 229.117188 122.324219 C 229.230469 122.214844 269.769531 91.121094 269.769531 91.121094 Z M 276.472656 143.417969 " fill-opacity="1" fill-rule="nonzero"/></g><g clip-path="url(#e035a977d9)"><path fill="#0056a2" d="M 213.957031 170.007812 C 213.519531 169.679688 213.078125 169.238281 212.75 168.800781 C 210.113281 166.160156 207.363281 163.636719 204.617188 161.21875 L 204.507812 161.109375 C 203.410156 160.121094 202.203125 159.128906 200.992188 158.140625 C 200.773438 158.03125 200.664062 157.8125 200.441406 157.703125 C 197.695312 155.394531 194.949219 153.308594 191.984375 151.21875 C 191.875 151.21875 191.875 151.109375 191.765625 151.109375 C 186.820312 147.59375 181.4375 144.519531 176.050781 142.210938 C 175.722656 142.101562 175.285156 141.882812 174.953125 141.769531 C 174.953125 141.769531 174.84375 141.769531 174.84375 141.660156 C 158.035156 134.628906 139.796875 133.75 126.390625 144.847656 C 124.742188 146.277344 123.207031 147.8125 121.777344 149.460938 C 115.953125 156.273438 112.4375 164.84375 110.460938 173.523438 C 108.484375 182.421875 106.945312 193.519531 109.140625 202.527344 C 109.140625 202.636719 109.691406 203.957031 110.132812 205.277344 C 110.570312 206.59375 110.789062 207.914062 109.910156 207.472656 L 109.472656 207.144531 C 108.042969 206.042969 106.617188 204.835938 105.296875 203.515625 C 101.230469 199.34375 97.9375 194.179688 96.066406 189.015625 C 96.066406 189.015625 96.066406 189.015625 96.066406 188.90625 C 95.738281 188.027344 95.519531 187.148438 95.296875 186.269531 C 94.308594 182.753906 93.871094 179.125 93.871094 175.390625 C 93.101562 159.898438 98.15625 145.398438 107.164062 135.398438 C 108.8125 133.421875 110.460938 131.664062 112.4375 130.015625 C 117.164062 126.167969 122.4375 123.644531 128.039062 122.542969 L 128.148438 122.542969 C 128.371094 122.433594 128.589844 122.433594 128.917969 122.324219 C 136.609375 120.566406 144.191406 121.117188 151.441406 123.53125 C 151.550781 123.53125 151.660156 123.644531 151.769531 123.644531 C 160.890625 126.058594 169.898438 130.566406 178.03125 136.277344 C 183.085938 139.792969 187.808594 143.640625 192.421875 147.8125 C 199.675781 154.296875 206.484375 161.4375 213.1875 168.800781 C 213.1875 169.238281 213.628906 169.679688 213.957031 170.007812 Z M 213.957031 170.007812 " fill-opacity="1" fill-rule="nonzero"/></g><path fill="#46b9ea" d="M 150.011719 167.480469 L 150.011719 215.273438 C 148.144531 215.382812 146.277344 215.492188 144.410156 215.492188 C 139.796875 215.492188 135.292969 215.054688 130.894531 214.175781 C 129.359375 213.84375 127.820312 213.515625 126.28125 213.074219 L 126.28125 172.863281 C 133.421875 172.535156 141.332031 170.996094 150.011719 167.480469 Z M 150.011719 167.480469 " fill-opacity="1" fill-rule="nonzero"/><path fill="#46b9ea" d="M 182.863281 147.15625 L 182.863281 205.824219 C 180.667969 206.921875 178.578125 207.914062 176.273438 208.902344 L 175.613281 209.121094 C 170.230469 211.316406 164.734375 212.964844 159.132812 214.066406 L 159.132812 163.195312 C 165.613281 159.789062 172.425781 155.394531 179.566406 149.683594 C 180.667969 148.914062 181.765625 148.035156 182.863281 147.15625 Z M 182.863281 147.15625 " fill-opacity="1" fill-rule="nonzero"/><path fill="#46b9ea" d="M 236.589844 131.222656 L 224.835938 125.949219 L 224.835938 160.339844 C 228.351562 152.976562 231.207031 145.175781 234.28125 137.15625 C 235.050781 135.179688 235.820312 133.203125 236.589844 131.222656 Z M 236.589844 131.222656 " fill-opacity="1" fill-rule="nonzero"/><g clip-path="url(#74a705f6f5)"><path fill="#46b9ea" d="M 248.566406 70.355469 L 248.566406 102.878906 C 242.523438 106.941406 236.371094 110.898438 232.085938 113.753906 C 229.558594 115.402344 226.371094 117.601562 225.824219 118.039062 L 224.835938 118.808594 L 224.835938 103.097656 C 232.414062 93.429688 240.324219 82.550781 248.566406 70.355469 Z M 248.566406 70.355469 " fill-opacity="1" fill-rule="nonzero"/></g><path fill="#46b9ea" d="M 248.566406 179.675781 C 246.808594 183.191406 245.050781 186.707031 243.074219 190.113281 C 244.941406 191.652344 246.808594 193.191406 248.566406 194.617188 Z M 248.566406 179.675781 " fill-opacity="1" fill-rule="nonzero"/><g clip-path="url(#03c1b25459)"><path fill="#46b9ea" d="M 234.171875 202.96875 L 234.0625 202.859375 C 232.304688 205.054688 230.328125 207.144531 228.351562 209.121094 C 227.25 210.21875 226.042969 211.316406 224.945312 212.417969 L 224.945312 233.183594 L 248.675781 233.183594 L 248.675781 210.21875 C 244.5 206.703125 240.546875 202.96875 236.917969 199.34375 Z M 234.171875 202.96875 " fill-opacity="1" fill-rule="nonzero"/></g><path fill="#46b9ea" d="M 215.714844 114.195312 L 215.714844 164.183594 C 215.605469 164.074219 215.496094 163.964844 215.386719 163.746094 C 210.113281 158.03125 204.507812 152.207031 198.683594 146.824219 C 196.488281 144.738281 194.289062 142.761719 191.984375 140.78125 L 191.984375 139.132812 C 199.5625 132.210938 207.476562 123.972656 215.714844 114.195312 Z M 215.714844 114.195312 " fill-opacity="1" fill-rule="nonzero"/><path fill="#46b9ea" d="M 191.984375 157.703125 L 191.984375 200.441406 C 200.882812 194.507812 208.355469 187.148438 213.957031 178.796875 C 214.066406 178.578125 214.175781 178.359375 214.398438 178.246094 L 214.617188 178.027344 L 210.332031 173.851562 C 203.847656 167.371094 197.804688 162.097656 191.984375 157.703125 Z M 191.984375 157.703125 " fill-opacity="1" fill-rule="nonzero"/><g clip-path="url(#948cbb2ebe)"><path fill="#46b9ea" d="M 191.984375 233.292969 L 215.714844 233.292969 L 215.714844 219.996094 C 208.355469 225.382812 200.332031 229.667969 191.984375 232.851562 Z M 191.984375 233.292969 " fill-opacity="1" fill-rule="nonzero"/></g><g clip-path="url(#e988fc007c)"><g mask="url(#366ba965e5)"><g transform="matrix(1, 0, 0, 1, 133, 90)"><g clip-path="url(#14c18fb009)"><g clip-path="url(#39bbedcdc3)"><path fill="#197fab" d="M 143.472656 53.417969 L 127.542969 46.277344 C 123.257812 56.277344 119.742188 66.714844 115.566406 76.820312 C 112.820312 83.632812 109.742188 90.226562 106.117188 96.488281 C 105.457031 97.585938 104.796875 98.796875 104.140625 99.785156 C 103.917969 100.222656 103.589844 100.664062 103.261719 101.101562 L 103.152344 101.320312 C 102.160156 102.75 101.28125 104.179688 100.292969 105.496094 C 100.074219 105.277344 99.855469 105.167969 99.636719 104.949219 C 99.855469 105.167969 100.074219 105.277344 100.183594 105.496094 C 100.183594 105.496094 100.074219 105.605469 100.074219 105.71875 C 97.546875 109.011719 94.910156 112.199219 91.945312 115.164062 C 91.835938 115.277344 91.722656 115.386719 91.613281 115.496094 C 88.867188 118.351562 85.902344 120.988281 82.824219 123.40625 C 75.574219 129.117188 67.554688 133.84375 59.09375 137.25 C 56.125 138.457031 53.050781 139.554688 49.972656 140.433594 C 45.25 141.753906 40.304688 142.742188 35.472656 143.292969 C 29.429688 143.953125 23.167969 144.0625 17.011719 143.292969 C 13.496094 142.851562 10.089844 142.191406 6.574219 141.3125 C 6.574219 141.3125 6.574219 141.3125 6.464844 141.3125 C 4.707031 140.875 2.839844 140.324219 1.082031 139.667969 C 91.394531 152.410156 117.761719 60.449219 122.816406 38.148438 C 123.367188 35.621094 126.003906 34.191406 128.53125 35.070312 L 134.792969 37.378906 L 136.332031 3.648438 L 136.769531 0.902344 Z M 143.472656 53.417969 " fill-opacity="1" fill-rule="nonzero"/></g></g></g></g></g><g mask="url(#a72bf8ba5e)"><g transform="matrix(1, 0, 0, 1, 98, 131)"><g clip-path="url(#41c054f781)"><path fill="#197fab" d="M 76.734375 10.660156 C 59.925781 3.628906 41.6875 2.75 28.28125 13.847656 C 26.632812 15.277344 25.09375 16.8125 23.667969 18.460938 C 17.84375 25.273438 14.328125 33.84375 12.351562 42.523438 C 10.375 51.421875 8.835938 62.519531 11.03125 71.527344 C 11.03125 71.636719 11.582031 72.957031 12.019531 74.277344 C 12.460938 75.59375 12.679688 76.914062 11.800781 76.472656 L 11.363281 76.144531 C -4.128906 57.574219 -1.710938 26.703125 16.414062 10.660156 C 33.226562 -4.390625 57.289062 1.101562 76.734375 10.660156 Z M 76.734375 10.660156 " fill-opacity="1" fill-rule="nonzero"/></g></g></g><g mask="url(#ee4acca6f7)"><g transform="matrix(1, 0, 0, 1, 125, 167)"><g clip-path="url(#861d6ffb5f)"><g clip-path="url(#d30cafc2fc)"><path fill="#197fab" d="M 1.28125 5.863281 C 8.421875 5.644531 16.332031 3.996094 25.011719 0.480469 L 25.011719 15.753906 C 17.652344 19.707031 9.742188 23.441406 1.28125 26.847656 Z M 1.28125 5.863281 " fill-opacity="1" fill-rule="nonzero"/></g></g></g></g><g mask="url(#3220ad6b07)"><g transform="matrix(1, 0, 0, 1, 158, 146)"><g clip-path="url(#8a7fd0864c)"><path fill="#197fab" d="M 21.566406 3.683594 C 22.667969 2.804688 23.765625 2.035156 24.753906 1.15625 L 24.753906 14.886719 C 17.613281 20.710938 9.703125 26.316406 1.023438 31.480469 L 1.023438 17.195312 C 7.613281 13.789062 14.425781 9.394531 21.566406 3.683594 Z M 21.566406 3.683594 " fill-opacity="1" fill-rule="nonzero"/></g></g></g><g mask="url(#c8d7402f94)"><g transform="matrix(1, 0, 0, 1, 191, 113)"><g clip-path="url(#33bdacc074)"><g clip-path="url(#a6f88b4c01)"><path fill="#197fab" d="M 24.714844 1.195312 L 24.714844 15.039062 C 19.660156 21.191406 14.058594 27.5625 7.683594 33.824219 C 5.488281 31.738281 3.289062 29.761719 0.984375 27.78125 L 0.984375 26.132812 C 8.5625 19.210938 16.476562 10.972656 24.714844 1.195312 Z M 24.714844 1.195312 " fill-opacity="1" fill-rule="nonzero"/></g></g></g></g><g clip-path="url(#1aee184393)"><g mask="url(#d1a14c2b95)"><g transform="matrix(1, 0, 0, 1, 224, 70)"><g clip-path="url(#3c91fc35e8)"><g clip-path="url(#5e8a0d563e)"><path fill="#197fab" d="M 24.566406 0.464844 C 24.234375 1.675781 17.863281 21.453125 0.945312 45.84375 L 0.945312 33.097656 C 8.414062 23.429688 16.324219 12.550781 24.566406 0.464844 Z M 24.566406 0.464844 " fill-opacity="1" fill-rule="nonzero"/></g></g></g></g></g><g transform="matrix(1, 0, 0, 1, 80, 227)"><g clip-path="url(#16dfd9254f)"><g fill="#0056a2" fill-opacity="1"><g transform="translate(1.42334, 47.194408)"><g><path d="M 21.671875 -7.421875 C 21.671875 -5.148438 20.8125 -3.238281 19.09375 -1.6875 C 17.375 -0.144531 15.234375 0.625 12.671875 0.625 C 10.898438 0.625 9.160156 0.285156 7.453125 -0.390625 C 6.578125 -0.710938 5.890625 -0.875 5.390625 -0.875 C 5.066406 -0.875 4.785156 -0.734375 4.546875 -0.453125 C 4.304688 -0.179688 4.175781 0.160156 4.15625 0.578125 L 3.171875 0.578125 L 1.859375 -8.78125 L 2.875 -8.78125 C 3.988281 -6.070312 5.257812 -4.09375 6.6875 -2.84375 C 8.113281 -1.59375 9.8125 -0.96875 11.78125 -0.96875 C 13.40625 -0.96875 14.71875 -1.421875 15.71875 -2.328125 C 16.71875 -3.242188 17.21875 -4.441406 17.21875 -5.921875 C 17.21875 -7.003906 17.007812 -7.867188 16.59375 -8.515625 C 15.507812 -10.160156 13.316406 -11.882812 10.015625 -13.6875 C 7.546875 -14.976562 5.78125 -16.285156 4.71875 -17.609375 C 3.664062 -18.929688 3.140625 -20.476562 3.140625 -22.25 C 3.140625 -24.65625 3.988281 -26.566406 5.6875 -27.984375 C 7.21875 -29.222656 8.882812 -29.84375 10.6875 -29.84375 C 12.15625 -29.84375 13.742188 -29.519531 15.453125 -28.875 C 16.242188 -28.519531 16.890625 -28.34375 17.390625 -28.34375 C 18.148438 -28.34375 18.617188 -28.84375 18.796875 -29.84375 L 19.734375 -29.84375 L 20.703125 -20.4375 L 19.59375 -20.4375 C 19.007812 -22.644531 18.113281 -24.363281 16.90625 -25.59375 C 15.34375 -27.21875 13.546875 -28.03125 11.515625 -28.03125 C 10.140625 -28.03125 9.03125 -27.65625 8.1875 -26.90625 C 7.351562 -26.15625 6.9375 -25.175781 6.9375 -23.96875 C 6.9375 -22.757812 7.4375 -21.625 8.4375 -20.5625 C 9.4375 -19.507812 11.097656 -18.347656 13.421875 -17.078125 C 16.328125 -15.492188 18.425781 -13.941406 19.71875 -12.421875 C 21.019531 -10.910156 21.671875 -9.242188 21.671875 -7.421875 Z M 21.671875 -7.421875 "/></g></g></g><g fill="#0056a2" fill-opacity="1"><g transform="translate(25.963246, 47.194408)"><g><path d="M 30.984375 0 L 18.71875 0 L 18.71875 -0.84375 C 20.425781 -0.957031 21.5 -1.265625 21.9375 -1.765625 C 22.375 -2.265625 22.59375 -3.441406 22.59375 -5.296875 L 22.59375 -13.90625 L 9.21875 -13.90625 L 9.21875 -4.8125 C 9.21875 -3.25 9.453125 -2.234375 9.921875 -1.765625 C 10.398438 -1.296875 11.460938 -0.988281 13.109375 -0.84375 L 13.109375 0 L 0.84375 0 L 0.84375 -0.84375 C 2.550781 -0.957031 3.625 -1.265625 4.0625 -1.765625 C 4.5 -2.265625 4.71875 -3.441406 4.71875 -5.296875 L 4.71875 -24.40625 C 4.71875 -26 4.5 -27.019531 4.0625 -27.46875 C 3.625 -27.925781 2.550781 -28.226562 0.84375 -28.375 L 0.84375 -29.21875 L 13.109375 -29.21875 L 13.109375 -28.375 C 11.398438 -28.226562 10.320312 -27.925781 9.875 -27.46875 C 9.4375 -27.019531 9.21875 -26 9.21875 -24.40625 L 9.21875 -15.84375 L 22.59375 -15.84375 L 22.59375 -24.40625 C 22.59375 -26 22.375 -27.019531 21.9375 -27.46875 C 21.5 -27.925781 20.425781 -28.226562 18.71875 -28.375 L 18.71875 -29.21875 L 30.984375 -29.21875 L 30.984375 -28.375 C 29.273438 -28.226562 28.203125 -27.925781 27.765625 -27.46875 C 27.328125 -27.019531 27.109375 -26 27.109375 -24.40625 L 27.109375 -4.8125 C 27.109375 -3.25 27.34375 -2.234375 27.8125 -1.765625 C 28.28125 -1.296875 29.335938 -0.988281 30.984375 -0.84375 Z M 30.984375 0 "/></g></g></g><g fill="#0056a2" fill-opacity="1"><g transform="translate(57.829808, 47.194408)"><g><path d="M 29.09375 0 L 21.984375 0 L 11.46875 -13.59375 L 9 -13.5 L 9 -4.8125 C 9 -3.21875 9.234375 -2.1875 9.703125 -1.71875 C 10.179688 -1.25 11.273438 -0.957031 12.984375 -0.84375 L 12.984375 0 L 0.75 0 L 0.75 -0.84375 C 2.394531 -0.957031 3.429688 -1.269531 3.859375 -1.78125 C 4.285156 -2.300781 4.5 -3.472656 4.5 -5.296875 L 4.5 -24.40625 C 4.5 -25.96875 4.285156 -26.976562 3.859375 -27.4375 C 3.429688 -27.894531 2.394531 -28.207031 0.75 -28.375 L 0.75 -29.21875 L 12.9375 -29.21875 C 14.988281 -29.21875 16.867188 -28.953125 18.578125 -28.421875 C 20.285156 -27.890625 21.566406 -27.171875 22.421875 -26.265625 C 23.566406 -24.972656 24.140625 -23.367188 24.140625 -21.453125 C 24.140625 -19.273438 23.390625 -17.582031 21.890625 -16.375 C 20.628906 -15.34375 18.71875 -14.578125 16.15625 -14.078125 L 25.25 -2.90625 C 25.863281 -2.175781 26.441406 -1.660156 26.984375 -1.359375 C 27.535156 -1.066406 28.238281 -0.894531 29.09375 -0.84375 Z M 19.328125 -21.546875 C 19.328125 -23.597656 18.671875 -25.117188 17.359375 -26.109375 C 16.054688 -27.097656 14.019531 -27.59375 11.25 -27.59375 C 10.375 -27.59375 9.78125 -27.476562 9.46875 -27.25 C 9.15625 -27.03125 9 -26.613281 9 -26 L 9 -15.140625 C 11.15625 -15.203125 12.742188 -15.328125 13.765625 -15.515625 C 14.796875 -15.703125 15.8125 -16.078125 16.8125 -16.640625 C 18.488281 -17.523438 19.328125 -19.160156 19.328125 -21.546875 Z M 19.328125 -21.546875 "/></g></g></g><g fill="#0056a2" fill-opacity="1"><g transform="translate(87.268856, 47.194408)"><g><path d="M 13.90625 0 L 0.796875 0 L 0.796875 -0.84375 C 2.648438 -0.894531 3.828125 -1.15625 4.328125 -1.625 C 4.828125 -2.101562 5.078125 -3.164062 5.078125 -4.8125 L 5.078125 -24.40625 C 5.078125 -26.03125 4.832031 -27.066406 4.34375 -27.515625 C 3.863281 -27.972656 2.679688 -28.257812 0.796875 -28.375 L 0.796875 -29.21875 L 13.90625 -29.21875 L 13.90625 -28.375 C 12.050781 -28.289062 10.863281 -28.015625 10.34375 -27.546875 C 9.832031 -27.078125 9.578125 -26.03125 9.578125 -24.40625 L 9.578125 -4.8125 C 9.578125 -3.195312 9.84375 -2.144531 10.375 -1.65625 C 10.90625 -1.164062 12.082031 -0.894531 13.90625 -0.84375 Z M 13.90625 0 "/></g></g></g><g fill="#0056a2" fill-opacity="1"><g transform="translate(101.966315, 47.194408)"><g/></g></g><g fill="#0056a2" fill-opacity="1"><g transform="translate(113.000446, 47.194408)"><g><path d="M 29.09375 0 L 21.984375 0 L 11.46875 -13.59375 L 9 -13.5 L 9 -4.8125 C 9 -3.21875 9.234375 -2.1875 9.703125 -1.71875 C 10.179688 -1.25 11.273438 -0.957031 12.984375 -0.84375 L 12.984375 0 L 0.75 0 L 0.75 -0.84375 C 2.394531 -0.957031 3.429688 -1.269531 3.859375 -1.78125 C 4.285156 -2.300781 4.5 -3.472656 4.5 -5.296875 L 4.5 -24.40625 C 4.5 -25.96875 4.285156 -26.976562 3.859375 -27.4375 C 3.429688 -27.894531 2.394531 -28.207031 0.75 -28.375 L 0.75 -29.21875 L 12.9375 -29.21875 C 14.988281 -29.21875 16.867188 -28.953125 18.578125 -28.421875 C 20.285156 -27.890625 21.566406 -27.171875 22.421875 -26.265625 C 23.566406 -24.972656 24.140625 -23.367188 24.140625 -21.453125 C 24.140625 -19.273438 23.390625 -17.582031 21.890625 -16.375 C 20.628906 -15.34375 18.71875 -14.578125 16.15625 -14.078125 L 25.25 -2.90625 C 25.863281 -2.175781 26.441406 -1.660156 26.984375 -1.359375 C 27.535156 -1.066406 28.238281 -0.894531 29.09375 -0.84375 Z M 19.328125 -21.546875 C 19.328125 -23.597656 18.671875 -25.117188 17.359375 -26.109375 C 16.054688 -27.097656 14.019531 -27.59375 11.25 -27.59375 C 10.375 -27.59375 9.78125 -27.476562 9.46875 -27.25 C 9.15625 -27.03125 9 -26.613281 9 -26 L 9 -15.140625 C 11.15625 -15.203125 12.742188 -15.328125 13.765625 -15.515625 C 14.796875 -15.703125 15.8125 -16.078125 16.8125 -16.640625 C 18.488281 -17.523438 19.328125 -19.160156 19.328125 -21.546875 Z M 19.328125 -21.546875 "/></g></g></g><g fill="#0056a2" fill-opacity="1"><g transform="translate(142.439494, 47.194408)"><g><path d="M 31.15625 0 L 19.90625 0 L 19.90625 -0.84375 C 21.113281 -0.84375 21.9375 -0.972656 22.375 -1.234375 C 22.789062 -1.441406 23 -1.796875 23 -2.296875 C 23 -3.003906 22.71875 -4.003906 22.15625 -5.296875 L 20.34375 -9.53125 L 8.78125 -9.53125 L 6.75 -4.375 C 6.519531 -3.75 6.40625 -3.171875 6.40625 -2.640625 C 6.40625 -1.441406 7.40625 -0.84375 9.40625 -0.84375 L 9.40625 0 L 0.65625 0 L 0.65625 -0.84375 C 1.71875 -0.894531 2.539062 -1.3125 3.125 -2.09375 C 3.71875 -2.875 4.722656 -4.867188 6.140625 -8.078125 L 15.3125 -29.75 L 16.203125 -29.75 L 27.1875 -4.671875 C 27.957031 -3.023438 28.5625 -1.988281 29 -1.5625 C 29.4375 -1.132812 30.15625 -0.894531 31.15625 -0.84375 Z M 19.734375 -11.34375 L 14.609375 -23.484375 L 9.53125 -11.34375 Z M 19.734375 -11.34375 "/></g></g></g><g fill="#0056a2" fill-opacity="1"><g transform="translate(174.306056, 47.194408)"><g><path d="M 38.09375 0 L 25.734375 0 L 25.734375 -0.84375 C 27.472656 -0.957031 28.578125 -1.269531 29.046875 -1.78125 C 29.515625 -2.300781 29.75 -3.472656 29.75 -5.296875 L 29.75 -25.296875 L 18.453125 0 L 17.828125 0 L 6.75 -24.28125 L 6.75 -6.484375 C 6.75 -4.253906 7.015625 -2.773438 7.546875 -2.046875 C 8.078125 -1.328125 9.195312 -0.925781 10.90625 -0.84375 L 10.90625 0 L 0.53125 0 L 0.53125 -0.84375 C 2.351562 -0.957031 3.519531 -1.359375 4.03125 -2.046875 C 4.550781 -2.742188 4.8125 -4.222656 4.8125 -6.484375 L 4.8125 -24.40625 C 4.8125 -26.03125 4.566406 -27.066406 4.078125 -27.515625 C 3.597656 -27.972656 2.445312 -28.257812 0.625 -28.375 L 0.625 -29.21875 L 9.359375 -29.21875 L 19.546875 -6.9375 L 29.3125 -29.21875 L 38.09375 -29.21875 L 38.09375 -28.375 C 36.445312 -28.226562 35.394531 -27.921875 34.9375 -27.453125 C 34.476562 -26.984375 34.25 -25.96875 34.25 -24.40625 L 34.25 -4.8125 C 34.25 -3.25 34.484375 -2.222656 34.953125 -1.734375 C 35.429688 -1.253906 36.476562 -0.957031 38.09375 -0.84375 Z M 38.09375 0 "/></g></g></g></g></g><g clip-path="url(#6de94998db)"><path fill="#0056a2" d="M 101.367188 282.734375 L 178.976562 282.734375 L 178.976562 283.097656 L 101.367188 283.097656 Z M 101.367188 282.734375 " fill-opacity="1" fill-rule="nonzero"/></g><g clip-path="url(#1d56207b44)"><path fill="#0056a2" d="M 196.011719 282.734375 L 273.621094 282.734375 L 273.621094 283.097656 L 196.011719 283.097656 Z M 196.011719 282.734375 " fill-opacity="1" fill-rule="nonzero"/></g><g clip-path="url(#9c38603a15)"><path fill="#0056a2" d="M 188.984375 282.917969 C 188.984375 282.980469 188.984375 283.046875 188.972656 283.097656 C 188.882812 283.832031 188.261719 284.398438 187.5 284.398438 C 186.742188 284.398438 186.121094 283.832031 186.03125 283.097656 C 186.019531 283.03125 186.019531 282.980469 186.019531 282.917969 C 186.019531 282.851562 186.019531 282.789062 186.03125 282.734375 C 186.109375 282 186.726562 281.433594 187.488281 281.433594 C 188.25 281.433594 188.867188 282 188.957031 282.734375 C 188.972656 282.800781 188.984375 282.867188 188.984375 282.917969 Z M 188.984375 282.917969 " fill-opacity="1" fill-rule="nonzero"/></g><g fill="#197fab" fill-opacity="1"><g transform="translate(91.897564, 300.812179)"><g><path d="M 4.3125 0 L 0.6875 0 L 0.6875 -0.40625 C 1.050781 -0.582031 1.425781 -0.695312 1.8125 -0.75 L 1.8125 -9.171875 C 1.625 -9.203125 1.4375 -9.25 1.25 -9.3125 C 1.0625 -9.375 0.875 -9.441406 0.6875 -9.515625 L 0.6875 -9.9375 L 4.3125 -9.9375 L 4.3125 -9.515625 C 4.144531 -9.441406 3.960938 -9.375 3.765625 -9.3125 C 3.566406 -9.25 3.367188 -9.203125 3.171875 -9.171875 L 3.171875 -0.75 C 3.367188 -0.707031 3.566406 -0.660156 3.765625 -0.609375 C 3.972656 -0.554688 4.15625 -0.488281 4.3125 -0.40625 Z M 4.3125 0 "/></g></g></g><g fill="#197fab" fill-opacity="1"><g transform="translate(100.293545, 300.812179)"><g><path d="M 6.90625 -9.9375 L 9.96875 -9.9375 L 9.96875 -9.515625 C 9.570312 -9.253906 9.1875 -9.066406 8.8125 -8.953125 L 8.8125 0.171875 L 8 0.171875 L 2.859375 -7.640625 L 2.296875 -8.75 L 2.25 -8.75 L 2.390625 -7.640625 L 2.390625 -0.90625 C 2.773438 -0.800781 3.132812 -0.632812 3.46875 -0.40625 L 3.46875 0 L 0.40625 0 L 0.40625 -0.40625 C 0.582031 -0.507812 0.765625 -0.601562 0.953125 -0.6875 C 1.148438 -0.769531 1.359375 -0.84375 1.578125 -0.90625 L 1.578125 -9.03125 C 1.390625 -9.113281 1.203125 -9.195312 1.015625 -9.28125 C 0.828125 -9.363281 0.65625 -9.445312 0.5 -9.53125 L 0.5 -9.9375 L 2.890625 -9.9375 L 7.359375 -3.1875 L 8.015625 -1.96875 L 8.078125 -1.96875 L 8 -3.1875 L 8 -8.953125 C 7.800781 -9.035156 7.609375 -9.125 7.421875 -9.21875 C 7.242188 -9.3125 7.070312 -9.410156 6.90625 -9.515625 Z M 6.90625 -9.9375 "/></g></g></g><g fill="#197fab" fill-opacity="1"><g transform="translate(114.077827, 300.812179)"><g><path d="M 7.734375 -9.171875 C 7.503906 -9.210938 7.289062 -9.265625 7.09375 -9.328125 C 6.894531 -9.390625 6.703125 -9.453125 6.515625 -9.515625 L 6.515625 -9.9375 L 9.703125 -9.9375 L 9.703125 -9.515625 C 9.429688 -9.367188 9.09375 -9.253906 8.6875 -9.171875 L 5.46875 0 L 4.703125 0.171875 L 1.078125 -9.171875 C 0.890625 -9.210938 0.703125 -9.265625 0.515625 -9.328125 C 0.335938 -9.390625 0.164062 -9.453125 0 -9.515625 L 0 -9.9375 L 3.765625 -9.9375 L 3.765625 -9.515625 C 3.597656 -9.453125 3.414062 -9.390625 3.21875 -9.328125 C 3.019531 -9.265625 2.8125 -9.210938 2.59375 -9.171875 L 5.015625 -2.6875 L 5.328125 -1.546875 L 5.34375 -1.546875 L 5.625 -2.703125 Z M 7.734375 -9.171875 "/></g></g></g><g fill="#197fab" fill-opacity="1"><g transform="translate(127.181482, 300.812179)"><g><path d="M 7.140625 -9.9375 C 7.128906 -9.550781 7.109375 -9.164062 7.078125 -8.78125 C 7.054688 -8.40625 7.023438 -8.023438 6.984375 -7.640625 L 6.609375 -7.640625 L 6.03125 -9.1875 L 2.9375 -9.1875 L 2.9375 -5.4375 L 5.25 -5.4375 L 5.796875 -6.484375 L 6.15625 -6.484375 C 6.21875 -5.546875 6.21875 -4.59375 6.15625 -3.625 L 5.796875 -3.625 L 5.25 -4.703125 L 2.9375 -4.703125 L 2.9375 -0.734375 L 6.203125 -0.734375 L 6.890625 -2.4375 L 7.25 -2.4375 C 7.3125 -2.039062 7.359375 -1.640625 7.390625 -1.234375 C 7.421875 -0.828125 7.425781 -0.414062 7.40625 0 L 0.40625 0 L 0.40625 -0.40625 C 0.738281 -0.5625 1.128906 -0.675781 1.578125 -0.75 L 1.578125 -9.171875 C 1.390625 -9.203125 1.191406 -9.25 0.984375 -9.3125 C 0.785156 -9.375 0.59375 -9.441406 0.40625 -9.515625 L 0.40625 -9.9375 Z M 7.140625 -9.9375 "/></g></g></g><g fill="#197fab" fill-opacity="1"><g transform="translate(138.8388, 300.812179)"><g><path d="M 2.125 -0.984375 C 2.238281 -0.867188 2.382812 -0.769531 2.5625 -0.6875 C 2.75 -0.601562 3.019531 -0.5625 3.375 -0.5625 C 3.675781 -0.5625 3.957031 -0.601562 4.21875 -0.6875 C 4.488281 -0.769531 4.71875 -0.890625 4.90625 -1.046875 C 5.101562 -1.203125 5.257812 -1.390625 5.375 -1.609375 C 5.488281 -1.828125 5.546875 -2.082031 5.546875 -2.375 C 5.546875 -2.75 5.429688 -3.0625 5.203125 -3.3125 C 4.972656 -3.570312 4.679688 -3.800781 4.328125 -4 C 3.984375 -4.195312 3.609375 -4.390625 3.203125 -4.578125 C 2.796875 -4.765625 2.421875 -4.988281 2.078125 -5.25 C 1.734375 -5.507812 1.441406 -5.820312 1.203125 -6.1875 C 0.972656 -6.550781 0.859375 -7.007812 0.859375 -7.5625 C 0.859375 -7.957031 0.929688 -8.3125 1.078125 -8.625 C 1.222656 -8.9375 1.425781 -9.203125 1.6875 -9.421875 C 1.945312 -9.640625 2.253906 -9.804688 2.609375 -9.921875 C 2.972656 -10.035156 3.375 -10.09375 3.8125 -10.09375 C 4.394531 -10.09375 4.921875 -10.046875 5.390625 -9.953125 C 5.867188 -9.867188 6.25 -9.765625 6.53125 -9.640625 C 6.53125 -9.472656 6.515625 -9.28125 6.484375 -9.0625 C 6.460938 -8.851562 6.4375 -8.632812 6.40625 -8.40625 C 6.375 -8.1875 6.335938 -7.96875 6.296875 -7.75 C 6.265625 -7.539062 6.226562 -7.351562 6.1875 -7.1875 L 5.8125 -7.1875 L 5.25 -9.140625 C 5.082031 -9.210938 4.867188 -9.265625 4.609375 -9.296875 C 4.347656 -9.335938 4.070312 -9.359375 3.78125 -9.359375 C 3.289062 -9.359375 2.898438 -9.222656 2.609375 -8.953125 C 2.316406 -8.691406 2.171875 -8.316406 2.171875 -7.828125 C 2.171875 -7.441406 2.285156 -7.113281 2.515625 -6.84375 C 2.742188 -6.582031 3.035156 -6.347656 3.390625 -6.140625 C 3.742188 -5.929688 4.117188 -5.726562 4.515625 -5.53125 C 4.921875 -5.34375 5.296875 -5.117188 5.640625 -4.859375 C 5.992188 -4.609375 6.285156 -4.304688 6.515625 -3.953125 C 6.742188 -3.609375 6.859375 -3.175781 6.859375 -2.65625 C 6.859375 -2.226562 6.78125 -1.835938 6.625 -1.484375 C 6.476562 -1.140625 6.253906 -0.84375 5.953125 -0.59375 C 5.660156 -0.351562 5.300781 -0.164062 4.875 -0.03125 C 4.445312 0.101562 3.96875 0.171875 3.4375 0.171875 C 2.84375 0.171875 2.304688 0.101562 1.828125 -0.03125 C 1.359375 -0.175781 1.023438 -0.332031 0.828125 -0.5 C 0.835938 -0.65625 0.851562 -0.847656 0.875 -1.078125 C 0.894531 -1.304688 0.921875 -1.539062 0.953125 -1.78125 C 0.984375 -2.019531 1.019531 -2.253906 1.0625 -2.484375 C 1.101562 -2.710938 1.140625 -2.90625 1.171875 -3.0625 L 1.546875 -3.0625 Z M 2.125 -0.984375 "/></g></g></g><g fill="#197fab" fill-opacity="1"><g transform="translate(149.84385, 300.812179)"><g><path d="M 6.390625 0 L 2.390625 0 L 2.390625 -0.40625 C 2.597656 -0.488281 2.804688 -0.554688 3.015625 -0.609375 C 3.234375 -0.660156 3.46875 -0.707031 3.71875 -0.75 L 3.71875 -9.1875 L 1.546875 -9.1875 L 0.796875 -7.171875 L 0.4375 -7.171875 C 0.40625 -7.359375 0.378906 -7.570312 0.359375 -7.8125 C 0.347656 -8.050781 0.332031 -8.296875 0.3125 -8.546875 C 0.300781 -8.796875 0.289062 -9.039062 0.28125 -9.28125 C 0.269531 -9.519531 0.265625 -9.738281 0.265625 -9.9375 L 8.515625 -9.9375 C 8.515625 -9.738281 8.507812 -9.519531 8.5 -9.28125 C 8.488281 -9.050781 8.472656 -8.8125 8.453125 -8.5625 C 8.441406 -8.3125 8.429688 -8.066406 8.421875 -7.828125 C 8.410156 -7.585938 8.390625 -7.367188 8.359375 -7.171875 L 7.984375 -7.171875 L 7.25 -9.1875 L 5.078125 -9.1875 L 5.078125 -0.75 C 5.328125 -0.707031 5.554688 -0.660156 5.765625 -0.609375 C 5.984375 -0.566406 6.191406 -0.5 6.390625 -0.40625 Z M 6.390625 0 "/></g></g></g><g fill="#197fab" fill-opacity="1"><g transform="translate(162.025821, 300.812179)"><g><path d="M 11.875 0 L 8.359375 0 L 8.359375 -0.40625 C 8.546875 -0.488281 8.734375 -0.554688 8.921875 -0.609375 C 9.109375 -0.660156 9.300781 -0.707031 9.5 -0.75 L 9.5 -7.140625 L 9.5625 -8.796875 L 9.453125 -8.796875 L 8.984375 -7.28125 L 6.078125 0 L 5.703125 0 L 2.9375 -7.28125 L 2.421875 -8.9375 L 2.296875 -8.9375 L 2.3125 -7.140625 L 2.3125 -0.75 C 2.488281 -0.707031 2.664062 -0.660156 2.84375 -0.609375 C 3.03125 -0.554688 3.210938 -0.488281 3.390625 -0.40625 L 3.390625 0 L 0.421875 0 L 0.421875 -0.40625 C 0.597656 -0.488281 0.785156 -0.554688 0.984375 -0.609375 C 1.179688 -0.671875 1.378906 -0.722656 1.578125 -0.765625 L 1.578125 -9.171875 C 1.378906 -9.203125 1.179688 -9.25 0.984375 -9.3125 C 0.785156 -9.375 0.59375 -9.441406 0.40625 -9.515625 L 0.40625 -9.9375 L 3.3125 -9.9375 L 5.78125 -3.453125 L 6.265625 -1.984375 L 6.28125 -1.984375 L 6.765625 -3.46875 L 9.328125 -9.9375 L 11.890625 -9.9375 L 11.890625 -9.515625 C 11.722656 -9.441406 11.546875 -9.375 11.359375 -9.3125 C 11.179688 -9.25 11 -9.203125 10.8125 -9.171875 L 10.8125 -0.734375 C 11.007812 -0.703125 11.195312 -0.660156 11.375 -0.609375 C 11.550781 -0.554688 11.71875 -0.488281 11.875 -0.40625 Z M 11.875 0 "/></g></g></g><g fill="#197fab" fill-opacity="1"><g transform="translate(177.724379, 300.812179)"><g><path d="M 7.140625 -9.9375 C 7.128906 -9.550781 7.109375 -9.164062 7.078125 -8.78125 C 7.054688 -8.40625 7.023438 -8.023438 6.984375 -7.640625 L 6.609375 -7.640625 L 6.03125 -9.1875 L 2.9375 -9.1875 L 2.9375 -5.4375 L 5.25 -5.4375 L 5.796875 -6.484375 L 6.15625 -6.484375 C 6.21875 -5.546875 6.21875 -4.59375 6.15625 -3.625 L 5.796875 -3.625 L 5.25 -4.703125 L 2.9375 -4.703125 L 2.9375 -0.734375 L 6.203125 -0.734375 L 6.890625 -2.4375 L 7.25 -2.4375 C 7.3125 -2.039062 7.359375 -1.640625 7.390625 -1.234375 C 7.421875 -0.828125 7.425781 -0.414062 7.40625 0 L 0.40625 0 L 0.40625 -0.40625 C 0.738281 -0.5625 1.128906 -0.675781 1.578125 -0.75 L 1.578125 -9.171875 C 1.390625 -9.203125 1.191406 -9.25 0.984375 -9.3125 C 0.785156 -9.375 0.59375 -9.441406 0.40625 -9.515625 L 0.40625 -9.9375 Z M 7.140625 -9.9375 "/></g></g></g><g fill="#197fab" fill-opacity="1"><g transform="translate(189.381697, 300.812179)"><g><path d="M 6.90625 -9.9375 L 9.96875 -9.9375 L 9.96875 -9.515625 C 9.570312 -9.253906 9.1875 -9.066406 8.8125 -8.953125 L 8.8125 0.171875 L 8 0.171875 L 2.859375 -7.640625 L 2.296875 -8.75 L 2.25 -8.75 L 2.390625 -7.640625 L 2.390625 -0.90625 C 2.773438 -0.800781 3.132812 -0.632812 3.46875 -0.40625 L 3.46875 0 L 0.40625 0 L 0.40625 -0.40625 C 0.582031 -0.507812 0.765625 -0.601562 0.953125 -0.6875 C 1.148438 -0.769531 1.359375 -0.84375 1.578125 -0.90625 L 1.578125 -9.03125 C 1.390625 -9.113281 1.203125 -9.195312 1.015625 -9.28125 C 0.828125 -9.363281 0.65625 -9.445312 0.5 -9.53125 L 0.5 -9.9375 L 2.890625 -9.9375 L 7.359375 -3.1875 L 8.015625 -1.96875 L 8.078125 -1.96875 L 8 -3.1875 L 8 -8.953125 C 7.800781 -9.035156 7.609375 -9.125 7.421875 -9.21875 C 7.242188 -9.3125 7.070312 -9.410156 6.90625 -9.515625 Z M 6.90625 -9.9375 "/></g></g></g><g fill="#197fab" fill-opacity="1"><g transform="translate(203.165979, 300.812179)"><g><path d="M 6.390625 0 L 2.390625 0 L 2.390625 -0.40625 C 2.597656 -0.488281 2.804688 -0.554688 3.015625 -0.609375 C 3.234375 -0.660156 3.46875 -0.707031 3.71875 -0.75 L 3.71875 -9.1875 L 1.546875 -9.1875 L 0.796875 -7.171875 L 0.4375 -7.171875 C 0.40625 -7.359375 0.378906 -7.570312 0.359375 -7.8125 C 0.347656 -8.050781 0.332031 -8.296875 0.3125 -8.546875 C 0.300781 -8.796875 0.289062 -9.039062 0.28125 -9.28125 C 0.269531 -9.519531 0.265625 -9.738281 0.265625 -9.9375 L 8.515625 -9.9375 C 8.515625 -9.738281 8.507812 -9.519531 8.5 -9.28125 C 8.488281 -9.050781 8.472656 -8.8125 8.453125 -8.5625 C 8.441406 -8.3125 8.429688 -8.066406 8.421875 -7.828125 C 8.410156 -7.585938 8.390625 -7.367188 8.359375 -7.171875 L 7.984375 -7.171875 L 7.25 -9.1875 L 5.078125 -9.1875 L 5.078125 -0.75 C 5.328125 -0.707031 5.554688 -0.660156 5.765625 -0.609375 C 5.984375 -0.566406 6.191406 -0.5 6.390625 -0.40625 Z M 6.390625 0 "/></g></g></g><g fill="#197fab" fill-opacity="1"><g transform="translate(215.347951, 300.812179)"><g/></g></g><g fill="#197fab" fill-opacity="1"><g transform="translate(222.198326, 300.812179)"><g><path d="M 8.640625 -0.6875 C 8.460938 -0.582031 8.25 -0.476562 8 -0.375 C 7.757812 -0.28125 7.503906 -0.191406 7.234375 -0.109375 C 6.972656 -0.0234375 6.707031 0.0390625 6.4375 0.09375 C 6.164062 0.144531 5.910156 0.171875 5.671875 0.171875 C 4.921875 0.171875 4.238281 0.0703125 3.625 -0.125 C 3.019531 -0.332031 2.503906 -0.644531 2.078125 -1.0625 C 1.660156 -1.488281 1.332031 -2.019531 1.09375 -2.65625 C 0.863281 -3.300781 0.75 -4.070312 0.75 -4.96875 C 0.75 -5.894531 0.882812 -6.679688 1.15625 -7.328125 C 1.425781 -7.984375 1.785156 -8.515625 2.234375 -8.921875 C 2.679688 -9.335938 3.191406 -9.632812 3.765625 -9.8125 C 4.335938 -10 4.921875 -10.09375 5.515625 -10.09375 C 6.140625 -10.09375 6.664062 -10.050781 7.09375 -9.96875 C 7.53125 -9.894531 7.910156 -9.78125 8.234375 -9.625 C 8.234375 -9.476562 8.226562 -9.300781 8.21875 -9.09375 C 8.207031 -8.882812 8.191406 -8.664062 8.171875 -8.4375 C 8.148438 -8.207031 8.125 -7.984375 8.09375 -7.765625 C 8.070312 -7.546875 8.046875 -7.347656 8.015625 -7.171875 L 7.640625 -7.171875 L 6.90625 -9.21875 C 6.800781 -9.28125 6.625 -9.316406 6.375 -9.328125 C 6.132812 -9.347656 5.894531 -9.359375 5.65625 -9.359375 C 5.1875 -9.359375 4.738281 -9.269531 4.3125 -9.09375 C 3.882812 -8.925781 3.507812 -8.660156 3.1875 -8.296875 C 2.875 -7.929688 2.625 -7.472656 2.4375 -6.921875 C 2.25 -6.367188 2.15625 -5.71875 2.15625 -4.96875 C 2.15625 -4.289062 2.242188 -3.679688 2.421875 -3.140625 C 2.609375 -2.609375 2.863281 -2.148438 3.1875 -1.765625 C 3.519531 -1.378906 3.90625 -1.082031 4.34375 -0.875 C 4.789062 -0.664062 5.269531 -0.5625 5.78125 -0.5625 C 5.96875 -0.5625 6.148438 -0.582031 6.328125 -0.625 C 6.503906 -0.664062 6.664062 -0.710938 6.8125 -0.765625 C 6.96875 -0.816406 7.09375 -0.867188 7.1875 -0.921875 C 7.289062 -0.972656 7.363281 -1.019531 7.40625 -1.0625 L 7.40625 -3.9375 C 7.15625 -3.945312 6.921875 -3.984375 6.703125 -4.046875 C 6.484375 -4.117188 6.265625 -4.191406 6.046875 -4.265625 L 6.046875 -4.6875 L 9.515625 -4.6875 L 9.515625 -4.265625 C 9.421875 -4.203125 9.304688 -4.140625 9.171875 -4.078125 C 9.046875 -4.023438 8.867188 -3.976562 8.640625 -3.9375 Z M 8.640625 -0.6875 "/></g></g></g><g fill="#197fab" fill-opacity="1"><g transform="translate(235.358699, 300.812179)"><g><path d="M 2.9375 -0.75 C 3.15625 -0.707031 3.363281 -0.660156 3.5625 -0.609375 C 3.757812 -0.554688 3.953125 -0.488281 4.140625 -0.40625 L 4.140625 0 L 0.40625 0 L 0.40625 -0.40625 C 0.613281 -0.5 0.8125 -0.566406 1 -0.609375 C 1.195312 -0.660156 1.390625 -0.707031 1.578125 -0.75 L 1.578125 -9.171875 C 1.328125 -9.210938 1.109375 -9.265625 0.921875 -9.328125 C 0.734375 -9.390625 0.5625 -9.453125 0.40625 -9.515625 L 0.40625 -9.9375 L 1.65625 -9.9375 C 2.039062 -9.9375 2.457031 -9.953125 2.90625 -9.984375 C 3.351562 -10.023438 3.789062 -10.046875 4.21875 -10.046875 C 4.675781 -10.046875 5.101562 -9.992188 5.5 -9.890625 C 5.90625 -9.785156 6.253906 -9.617188 6.546875 -9.390625 C 6.847656 -9.160156 7.078125 -8.867188 7.234375 -8.515625 C 7.398438 -8.171875 7.484375 -7.753906 7.484375 -7.265625 C 7.484375 -6.578125 7.300781 -6.003906 6.9375 -5.546875 C 6.582031 -5.085938 6.09375 -4.757812 5.46875 -4.5625 C 5.875 -3.925781 6.296875 -3.289062 6.734375 -2.65625 C 7.179688 -2.019531 7.644531 -1.390625 8.125 -0.765625 L 8.890625 -0.359375 L 8.890625 0 L 7.171875 0 L 6.640625 -0.390625 C 6.378906 -0.722656 6.140625 -1.046875 5.921875 -1.359375 C 5.703125 -1.679688 5.492188 -2.003906 5.296875 -2.328125 C 5.109375 -2.660156 4.929688 -2.992188 4.765625 -3.328125 C 4.609375 -3.660156 4.441406 -4.015625 4.265625 -4.390625 L 2.9375 -4.390625 Z M 3.90625 -9.3125 C 3.675781 -9.3125 3.488281 -9.304688 3.34375 -9.296875 C 3.195312 -9.285156 3.0625 -9.265625 2.9375 -9.234375 L 2.9375 -5 L 3.953125 -5 C 4.609375 -5 5.128906 -5.207031 5.515625 -5.625 C 5.898438 -6.039062 6.09375 -6.585938 6.09375 -7.265625 C 6.09375 -7.960938 5.882812 -8.476562 5.46875 -8.8125 C 5.0625 -9.144531 4.539062 -9.3125 3.90625 -9.3125 Z M 3.90625 -9.3125 "/></g></g></g><g fill="#197fab" fill-opacity="1"><g transform="translate(247.795908, 300.812179)"><g><path d="M 0.75 -4.96875 C 0.75 -5.707031 0.847656 -6.390625 1.046875 -7.015625 C 1.253906 -7.640625 1.550781 -8.179688 1.9375 -8.640625 C 2.320312 -9.097656 2.789062 -9.453125 3.34375 -9.703125 C 3.90625 -9.960938 4.539062 -10.09375 5.25 -10.09375 C 5.957031 -10.09375 6.585938 -9.960938 7.140625 -9.703125 C 7.703125 -9.453125 8.175781 -9.097656 8.5625 -8.640625 C 8.945312 -8.179688 9.238281 -7.640625 9.4375 -7.015625 C 9.644531 -6.390625 9.75 -5.707031 9.75 -4.96875 C 9.75 -4.226562 9.644531 -3.539062 9.4375 -2.90625 C 9.238281 -2.28125 8.945312 -1.738281 8.5625 -1.28125 C 8.175781 -0.820312 7.703125 -0.460938 7.140625 -0.203125 C 6.585938 0.046875 5.957031 0.171875 5.25 0.171875 C 4.539062 0.171875 3.90625 0.046875 3.34375 -0.203125 C 2.789062 -0.460938 2.320312 -0.820312 1.9375 -1.28125 C 1.550781 -1.738281 1.253906 -2.28125 1.046875 -2.90625 C 0.847656 -3.539062 0.75 -4.226562 0.75 -4.96875 Z M 2.265625 -4.96875 C 2.265625 -4.363281 2.328125 -3.789062 2.453125 -3.25 C 2.585938 -2.71875 2.78125 -2.253906 3.03125 -1.859375 C 3.289062 -1.460938 3.613281 -1.144531 4 -0.90625 C 4.382812 -0.675781 4.84375 -0.5625 5.375 -0.5625 C 5.851562 -0.5625 6.269531 -0.675781 6.625 -0.90625 C 6.988281 -1.144531 7.285156 -1.460938 7.515625 -1.859375 C 7.753906 -2.253906 7.929688 -2.71875 8.046875 -3.25 C 8.171875 -3.789062 8.234375 -4.363281 8.234375 -4.96875 C 8.234375 -5.570312 8.171875 -6.140625 8.046875 -6.671875 C 7.921875 -7.210938 7.726562 -7.679688 7.46875 -8.078125 C 7.21875 -8.472656 6.898438 -8.785156 6.515625 -9.015625 C 6.128906 -9.242188 5.671875 -9.359375 5.140625 -9.359375 C 4.617188 -9.359375 4.175781 -9.242188 3.8125 -9.015625 C 3.445312 -8.785156 3.148438 -8.472656 2.921875 -8.078125 C 2.691406 -7.679688 2.523438 -7.210938 2.421875 -6.671875 C 2.316406 -6.140625 2.265625 -5.570312 2.265625 -4.96875 Z M 2.265625 -4.96875 "/></g></g></g><g fill="#197fab" fill-opacity="1"><g transform="translate(261.693635, 300.812179)"><g><path d="M 0.140625 -9.9375 L 3.75 -9.9375 L 3.75 -9.515625 C 3.5625 -9.441406 3.378906 -9.375 3.203125 -9.3125 C 3.023438 -9.257812 2.847656 -9.210938 2.671875 -9.171875 L 2.671875 -3.359375 C 2.671875 -2.859375 2.722656 -2.441406 2.828125 -2.109375 C 2.941406 -1.773438 3.101562 -1.503906 3.3125 -1.296875 C 3.519531 -1.097656 3.773438 -0.953125 4.078125 -0.859375 C 4.390625 -0.765625 4.738281 -0.71875 5.125 -0.71875 C 5.875 -0.71875 6.453125 -0.921875 6.859375 -1.328125 C 7.273438 -1.742188 7.484375 -2.425781 7.484375 -3.375 L 7.484375 -9.03125 C 7.273438 -9.113281 7.070312 -9.191406 6.875 -9.265625 C 6.6875 -9.347656 6.519531 -9.429688 6.375 -9.515625 L 6.375 -9.9375 L 9.390625 -9.9375 L 9.390625 -9.515625 C 9.210938 -9.410156 9.03125 -9.316406 8.84375 -9.234375 C 8.65625 -9.148438 8.46875 -9.082031 8.28125 -9.03125 L 8.28125 -3.34375 C 8.28125 -2.738281 8.195312 -2.21875 8.03125 -1.78125 C 7.875 -1.351562 7.648438 -0.992188 7.359375 -0.703125 C 7.078125 -0.421875 6.726562 -0.210938 6.3125 -0.078125 C 5.90625 0.0546875 5.453125 0.125 4.953125 0.125 C 3.765625 0.125 2.859375 -0.140625 2.234375 -0.671875 C 1.617188 -1.203125 1.3125 -2.023438 1.3125 -3.140625 L 1.3125 -9.171875 C 0.914062 -9.222656 0.523438 -9.335938 0.140625 -9.515625 Z M 0.140625 -9.9375 "/></g></g></g><g fill="#197fab" fill-opacity="1"><g transform="translate(274.627141, 300.812179)"><g><path d="M 2.9375 -0.75 C 3.1875 -0.71875 3.425781 -0.671875 3.65625 -0.609375 C 3.882812 -0.554688 4.097656 -0.488281 4.296875 -0.40625 L 4.296875 0 L 0.40625 0 L 0.40625 -0.40625 C 0.59375 -0.5 0.785156 -0.566406 0.984375 -0.609375 C 1.191406 -0.660156 1.390625 -0.707031 1.578125 -0.75 L 1.578125 -9.171875 C 1.359375 -9.203125 1.15625 -9.25 0.96875 -9.3125 C 0.78125 -9.375 0.59375 -9.441406 0.40625 -9.515625 L 0.40625 -9.9375 L 1.6875 -9.9375 C 2.0625 -9.9375 2.472656 -9.953125 2.921875 -9.984375 C 3.367188 -10.023438 3.796875 -10.046875 4.203125 -10.046875 C 4.660156 -10.046875 5.113281 -9.992188 5.5625 -9.890625 C 6.007812 -9.796875 6.40625 -9.628906 6.75 -9.390625 C 7.09375 -9.148438 7.367188 -8.832031 7.578125 -8.4375 C 7.796875 -8.050781 7.90625 -7.566406 7.90625 -6.984375 C 7.90625 -6.421875 7.796875 -5.941406 7.578125 -5.546875 C 7.359375 -5.148438 7.066406 -4.820312 6.703125 -4.5625 C 6.335938 -4.3125 5.921875 -4.125 5.453125 -4 C 4.992188 -3.882812 4.519531 -3.828125 4.03125 -3.828125 C 3.976562 -3.828125 3.898438 -3.828125 3.796875 -3.828125 C 3.703125 -3.828125 3.597656 -3.828125 3.484375 -3.828125 C 3.367188 -3.835938 3.257812 -3.847656 3.15625 -3.859375 C 3.050781 -3.867188 2.976562 -3.878906 2.9375 -3.890625 Z M 3.90625 -9.3125 C 3.675781 -9.3125 3.488281 -9.304688 3.34375 -9.296875 C 3.207031 -9.285156 3.070312 -9.265625 2.9375 -9.234375 L 2.9375 -4.640625 C 2.976562 -4.617188 3.046875 -4.601562 3.140625 -4.59375 C 3.234375 -4.59375 3.328125 -4.585938 3.421875 -4.578125 C 3.523438 -4.566406 3.625 -4.5625 3.71875 -4.5625 C 3.8125 -4.5625 3.882812 -4.5625 3.9375 -4.5625 C 4.269531 -4.5625 4.582031 -4.609375 4.875 -4.703125 C 5.175781 -4.796875 5.4375 -4.941406 5.65625 -5.140625 C 5.875 -5.335938 6.050781 -5.585938 6.1875 -5.890625 C 6.320312 -6.191406 6.390625 -6.554688 6.390625 -6.984375 C 6.390625 -7.753906 6.164062 -8.332031 5.71875 -8.71875 C 5.28125 -9.113281 4.675781 -9.3125 3.90625 -9.3125 Z M 3.90625 -9.3125 "/></g></g></g></svg>